# xmcd
#
# Track frame offsets:
#	150
#	17660
#	34213
#	51474
#	66355
#	81776
#	97356
#	113342
#	126331
#	144016
#	161716
#	174463
#	190737
#	206365
#	221115
#
# Disc length: 3109
#
# Revision: 2
# Processed by: cddbd v1.5.1PL0 Copyright (c) Steve Scherf et al.
# Submitted via: audiograbber 1.82.02
# Normalized: r1:DSETVAR1
#
DISCID=d70c230f
DTITLE=Various Artist - Hot Hits Country Vol. 87
DYEAR=1999
DGENRE=Country
TTITLE0=Alan Jackson - Gone Crazy
TTITLE1=Dixie Chicks - You Were Mine
TTITLE2=Collin Raye - Anyone Else
TTITLE3=Randy Travis - Stranger In My Mirror
TTITLE4=Aaron Tippin - I'm Leaving
TTITLE5=Blackhawk - Your Own Little Corner Of My Heart
TTITLE6=Lila McCann - With You
TTITLE7=Gil Grand - Let's Start Livin'
TTITLE8=James Prosser - Life Goes On
TTITLE9=Danni Leigh - 29 Nights
TTITLE10=Lisa Brokop - Ain't Enough Roses
TTITLE11=Sons Of The Desert - What About You
TTITLE12=Claudia Church - What's The Matter With You Baby
TTITLE13=Keith Harling - There Goes The Neighborhood
TTITLE14=Charles Alan Rowe - Double Shot Of Your Love
EXTD=
EXTT0=
EXTT1=
EXTT2=
EXTT3=
EXTT4=
EXTT5=
EXTT6=
EXTT7=
EXTT8=
EXTT9=
EXTT10=
EXTT11=
EXTT12=
EXTT13=
EXTT14=
PLAYORDER=
